<?xml version="1.0" encoding="UTF-8"?>
<svg xmlns="http://www.w3.org/2000/svg"
     width="18"
     height="18"
     viewBox="0 0 18 18"
     role="img"
     aria-labelledby="title description">
  <title id="title">Sidewire menu bar icon</title>
  <desc id="description">Two monochrome signal paths cross from side to side.</desc>

  <defs>
    <mask id="underpass" maskUnits="userSpaceOnUse" x="0" y="0" width="1024" height="1024">
      <rect width="1024" height="1024" fill="#ffffff"/>
      <path d="M128 384 H286 C360 384 401 424 447 479 L577 634 C619 684 665 712 738 712 H896"
            fill="none" stroke="#000000" stroke-width="260" stroke-linecap="round" stroke-linejoin="round"/>
    </mask>
  </defs>

  <g transform="translate(-0.26 -0.22) scale(0.018)"
     fill="none"
     stroke="#000000"
     stroke-width="84"
     stroke-linecap="round"
     stroke-linejoin="round">
    <path d="M128 640 H286 C360 640 401 600 447 545 L577 390 C619 340 665 312 738 312 H896"
          mask="url(#underpass)"/>
    <path d="M128 384 H286 C360 384 401 424 447 479 L577 634 C619 684 665 712 738 712 H896"/>
  </g>
</svg>
